<svg width="20" height="20" viewBox="0 0 20 20" fill="none" xmlns="http://www.w3.org/2000/svg">
<path fill-rule="evenodd" clip-rule="evenodd" d="M6.36396 4.94967C5.97344 4.55914 5.34027 4.55914 4.94975 4.94967C4.55922 5.34019 4.55922 5.97336 4.94975 6.36388L8.48528 9.89941L4.94975 13.4349C4.55922 13.8255 4.55922 14.4586 4.94975 14.8492C5.34027 15.2397 5.97344 15.2397 6.36396 14.8492L9.89949 11.3136L13.435 14.8492C13.8256 15.2397 14.4587 15.2397 14.8492 14.8492C15.2398 14.4586 15.2398 13.8255 14.8492 13.4349L11.3137 9.89941L14.8492 6.36388C15.2398 5.97336 15.2398 5.34019 14.8492 4.94967C14.4587 4.55914 13.8256 4.55914 13.435 4.94967L9.89949 8.4852L6.36396 4.94967Z" fill="#69696D"/>
</svg>
