<svg width="20" height="20" viewBox="0 0 20 20" fill="none" xmlns="http://www.w3.org/2000/svg">
<path fill-rule="evenodd" clip-rule="evenodd" d="M14.9497 6.46455C15.3403 6.07402 15.3403 5.44086 14.9497 5.05033C14.5592 4.65981 13.9261 4.65981 13.5355 5.05033L10 8.58587L6.46447 5.05033C6.07394 4.65981 5.44078 4.65981 5.05025 5.05033C4.65973 5.44086 4.65973 6.07402 5.05025 6.46455L8.58579 10.0001L5.05025 13.5356C4.65973 13.9261 4.65973 14.5593 5.05025 14.9498C5.44078 15.3404 6.07394 15.3404 6.46447 14.9498L10 11.4143L13.5355 14.9498C13.9261 15.3404 14.5592 15.3404 14.9497 14.9498C15.3403 14.5593 15.3403 13.9261 14.9497 13.5356L11.4142 10.0001L14.9497 6.46455Z" fill="white"/>
</svg>
