<svg width="148" height="40" viewBox="0 0 148 40" fill="none" xmlns="http://www.w3.org/2000/svg">
<rect width="39.9999" height="40" rx="8" fill="#28282E"/>
<path d="M12.3076 13.411L17.902 16.6433V22.1134L12.3076 18.8811V13.411Z" fill="#E0E0E0"/>
<path d="M22.1291 7.69226L27.5992 10.8003L17.9022 16.6433L12.3079 13.411L22.1291 7.69226Z" fill="white"/>
<path d="M27.5991 26.589L22.0047 23.3567L22.0047 17.8866L27.5991 21.1189L27.5991 26.589Z" fill="#E0E0E0"/>
<path d="M17.7769 32.3077L12.3068 29.1997L22.0038 23.3567L27.5981 26.589L17.7769 32.3077Z" fill="white"/>
<path d="M48.0068 24.3821C47.8557 28.7641 50.2129 32.2092 56.0756 32.2092C61.9988 32.2092 63.8725 28.613 63.8725 25.047C63.8725 22.448 62.8147 20.5139 58.6443 18.6403C54.625 16.8271 54.0206 16.5551 54.0206 15.5276C54.0206 14.4699 54.9877 13.7748 55.985 13.7748C57.7377 13.7748 57.9191 15.1952 58.0399 15.9507H63.6911C63.6005 10.5715 59.2488 9 56.1663 9C52.419 9 48.3392 11.3874 48.3392 15.8902C48.3392 20.0908 52.2376 21.6623 53.8091 22.2969C57.2542 23.7475 58.191 24.1101 58.191 25.2887C58.191 26.3162 57.3751 27.4344 56.0152 27.4344C55.2899 27.4344 53.6882 26.9811 53.6882 24.3821H48.0068Z" fill="#28282E"/>
<path d="M66.2832 13.2302H71.2998V9.42249H66.2832V13.2302ZM66.2832 31.7855H71.2998V15.0132H66.2832V31.7855Z" fill="#28282E"/>
<path d="M91.1851 25.1374C91.5779 22.055 90.9433 19.3654 88.8279 17.0988C87.2564 15.4367 85.0503 14.4395 82.4816 14.4395C77.3744 14.4395 73.6875 18.761 73.6875 23.4451C73.6875 28.4315 77.7672 32.3299 82.5723 32.3299C84.2948 32.3299 85.9569 31.8161 87.3471 30.8189C88.7674 29.8518 89.946 28.4012 90.762 26.5276H85.6245C85.0201 27.404 84.1739 28.099 82.5723 28.099C80.6079 28.099 78.9156 26.9204 78.7041 25.1374H91.1851ZM78.7645 21.3297C78.8854 20.544 79.9129 18.6703 82.5118 18.6703C85.1108 18.6703 86.1383 20.544 86.2591 21.3297H78.7645Z" fill="#28282E"/>
<path d="M93.6338 31.7859H98.6504V22.6594C98.6504 20.9368 99.0432 19.1538 101.521 19.1538C103.758 19.1538 104.15 20.7857 104.15 22.6292V31.7859H109.167V21.2995C109.167 19.0329 108.593 14.4395 102.942 14.4395C99.9498 14.4395 98.8921 15.9807 98.3179 16.7966V15.0136H93.6338V31.7859Z" fill="#28282E"/>
<path d="M111.614 31.7859H116.631V22.6594C116.631 20.9368 117.024 19.1538 119.502 19.1538C121.738 19.1538 122.131 20.7857 122.131 22.6292V31.7859H127.147V21.2995C127.147 19.0329 126.573 14.4395 120.922 14.4395C117.93 14.4395 116.873 15.9807 116.298 16.7966V15.0136H111.614V31.7859Z" fill="#28282E"/>
<path d="M148 15.0136H142.984V16.7966C142.319 15.7691 140.777 14.4395 138.027 14.4395C133.555 14.4395 129.596 17.8846 129.596 23.3847C129.596 28.1897 132.709 32.3601 138.027 32.3601C139.992 32.3601 142.077 31.6046 142.984 29.9727V31.7859H148V15.0136ZM134.613 23.4451C134.613 21.5412 135.882 19.1236 138.753 19.1236C140.868 19.1236 142.016 20.3022 142.56 21.4506C142.893 22.1456 143.044 22.9011 142.984 23.6566C142.923 24.4122 142.712 25.1374 142.288 25.8023C141.654 26.8298 140.566 27.6759 138.783 27.6759C135.761 27.6759 134.613 25.0166 134.613 23.4753V23.4451Z" fill="#28282E"/>
</svg>
