<svg width="15" height="26" viewBox="0 0 15 26" fill="none" xmlns="http://www.w3.org/2000/svg">
<path d="M13.6377 12.2629C13.7394 12.0976 13.7951 11.9082 13.7992 11.7141C13.8033 11.5201 13.7555 11.3284 13.6609 11.159C13.5662 10.9895 13.4281 10.8484 13.2607 10.7502C13.0933 10.6519 12.9027 10.6001 12.7086 10.6H8.99983V1L1.16196 13.7381C1.06018 13.9034 1.00435 14.0928 1.00024 14.2868C0.996138 14.4808 1.0439 14.6724 1.1386 14.8418C1.2333 15.0112 1.3715 15.1523 1.53893 15.2504C1.70637 15.3485 1.89696 15.4002 2.09102 15.4H5.79982V25L13.6377 12.2629Z" stroke="white" stroke-width="2" stroke-linecap="round" stroke-linejoin="round"/>
</svg>
