<svg width="6" height="6" viewBox="0 0 6 6" fill="none" xmlns="http://www.w3.org/2000/svg">
<path fill-rule="evenodd" clip-rule="evenodd" d="M5.70872 0.875465C5.71791 0.710901 5.65964 0.543275 5.53392 0.417557C5.41665 0.300278 5.26289 0.241699 5.10918 0.241821C5.10903 0.241821 5.10888 0.241821 5.10872 0.241821H1.50099C1.16962 0.241821 0.900993 0.51045 0.900993 0.841821C0.900993 1.17319 1.16962 1.44182 1.50099 1.44182H3.66113L0.175736 4.92722C-0.0585787 5.16153 -0.0585787 5.54143 0.175736 5.77575C0.410051 6.01006 0.78995 6.01006 1.02426 5.77575L4.50872 2.29129V4.44955C4.50872 4.78092 4.77735 5.04955 5.10872 5.04955C5.44009 5.04955 5.70872 4.78092 5.70872 4.44955V0.875465Z" fill="#28282E"/>
</svg>
