<svg width="19" height="18" viewBox="0 0 19 18" fill="none" xmlns="http://www.w3.org/2000/svg">
<path d="M16.3601 9.31994V6.75991C16.3601 6.42043 16.2253 6.09486 15.9852 5.85481C15.7452 5.61476 15.4196 5.4799 15.0801 5.4799H2.28001C1.94053 5.4799 1.61495 5.61476 1.37491 5.85481C1.13486 6.09486 1 6.42043 1 6.75991V15.72C1 16.0595 1.13486 16.385 1.37491 16.6251C1.61495 16.8651 1.94053 17 2.28001 17H15.0801C15.4196 17 15.7452 16.8651 15.9852 16.6251C16.2253 16.385 16.3601 16.0595 16.3601 15.72V12.52" stroke="white" stroke-width="1.5" stroke-linecap="round" stroke-linejoin="round"/>
<path d="M4.19995 3.41397L13.1715 1.02163C13.2536 0.999741 13.3392 0.994397 13.4233 1.00591C13.5074 1.01742 13.5884 1.04556 13.6616 1.08869C13.7347 1.13181 13.7985 1.18906 13.8493 1.2571C13.9001 1.32514 13.9369 1.40261 13.9575 1.48499L14.44 3.41397" stroke="white" stroke-width="1.5" stroke-linecap="round" stroke-linejoin="round"/>
<path d="M13.1602 9.31994H17.6402V12.52H13.1602V9.31994Z" stroke="white" stroke-width="1.5" stroke-linecap="round" stroke-linejoin="round"/>
</svg>
